<?xml version="1.0" standalone="no"?>
<!DOCTYPE svg PUBLIC "-//W3C//DTD SVG 20010904//EN"
 "http://www.w3.org/TR/2001/REC-SVG-20010904/DTD/svg10.dtd">
<svg version="1.0" xmlns="http://www.w3.org/2000/svg"
 width="1112.000000pt" height="1112.000000pt" viewBox="0 0 1112.000000 1112.000000"
 preserveAspectRatio="xMidYMid meet">
<metadata>
Created by potrace 1.14, written by Peter Selinger 2001-2017
</metadata>
<g transform="translate(0.000000,1112.000000) scale(0.100000,-0.100000)"
fill="#000000" stroke="none">
<path d="M2232 11028 c-41 -175 -57 -327 -54 -518 1 -127 18 -237 67 -430 54
-215 100 -322 236 -546 83 -138 158 -229 205 -249 18 -7 72 -43 120 -80 47
-36 99 -72 115 -80 61 -32 337 -80 404 -70 41 6 130 19 197 30 24 4 60 24 100
55 33 28 64 50 68 50 4 0 10 -37 14 -82 3 -46 8 -94 11 -108 5 -23 -2 -28 -87
-67 -103 -48 -318 -115 -418 -133 -36 -6 -103 -19 -150 -29 -186 -40 -535 -20
-715 42 -170 59 -344 147 -394 201 -13 14 -49 37 -80 52 -66 33 -221 178 -318
299 -67 84 -164 266 -188 351 -10 37 -13 42 -14 21 -1 -39 52 -186 101 -279
52 -98 201 -273 329 -388 52 -46 95 -87 97 -92 2 -4 -6 -36 -17 -71 -26 -76
-61 -258 -61 -312 0 -74 -24 -103 -141 -165 -257 -137 -465 -379 -554 -645
-31 -92 -55 -255 -55 -382 0 -109 41 -365 69 -428 26 -59 84 -142 89 -127 2 6
-6 32 -17 58 -12 26 -24 71 -27 100 -6 48 -2 64 50 188 53 127 106 225 185
341 47 69 422 443 428 428 2 -7 0 -36 -6 -63 -26 -121 -10 -302 45 -525 37
-146 59 -206 94 -256 l22 -29 18 22 c28 33 25 6 -5 -58 -53 -113 -130 -461
-126 -576 1 -36 -5 -104 -14 -150 -13 -61 -18 -146 -19 -322 l-2 -239 -90 -32
c-211 -76 -618 -266 -751 -351 -29 -18 -75 -45 -102 -58 -70 -36 -243 -169
-296 -228 -47 -53 -58 -95 -31 -118 8 -6 42 -17 75 -23 34 -6 61 -15 61 -19 0
-5 -4 -8 -8 -8 -5 0 -55 -29 -111 -64 -102 -63 -104 -64 -194 -71 -136 -10
-386 -99 -387 -138 0 -16 5 -15 53 8 28 14 60 30 70 35 58 33 180 72 238 77
107 9 103 -11 -26 -148 -133 -140 -181 -262 -173 -443 4 -84 10 -115 38 -186
44 -112 103 -204 192 -294 71 -72 159 -136 185 -136 7 0 -27 39 -75 88 -88 86
-89 88 -107 164 -33 142 -2 307 75 398 l29 35 1 -110 c1 -290 65 -453 246
-626 143 -136 369 -260 534 -293 36 -8 101 -23 145 -35 120 -31 267 -51 387
-51 96 0 108 2 118 19 13 26 4 30 -45 22 -22 -4 -67 -3 -100 1 -33 4 -100 12
-150 19 -91 11 -336 70 -455 110 -97 32 -194 83 -302 161 -168 120 -259 240
-315 418 -24 76 -27 101 -27 230 -1 144 0 146 32 210 17 36 32 76 32 90 0 14
13 50 30 80 16 30 29 59 30 63 1 22 -24 -13 -79 -111 -33 -59 -79 -132 -100
-162 -123 -171 -156 -255 -149 -384 l3 -68 -27 32 c-27 33 -78 151 -98 229
-13 49 -7 143 15 253 27 130 144 312 251 387 27 19 72 55 100 80 136 122 631
344 907 406 105 23 272 38 364 32 84 -5 87 -4 58 11 -131 68 -639 -43 -1000
-220 -151 -74 -164 -77 -234 -63 -35 8 -68 18 -74 24 -18 18 11 56 95 127 143
119 268 194 593 355 394 196 534 257 555 244 4 -2 10 -40 12 -82 5 -73 18
-125 85 -343 31 -102 126 -295 179 -367 43 -57 105 -103 141 -103 32 0 30 30
-6 94 -32 56 -75 185 -85 256 l-6 45 82 -86 c97 -101 150 -139 262 -186 97
-42 124 -62 241 -173 50 -47 113 -106 141 -130 l52 -45 4 -138 c4 -123 3 -137
-11 -131 -9 3 -83 31 -166 61 -82 30 -151 56 -152 57 -2 2 50 13 115 25 64 13
131 29 147 37 27 12 20 12 -65 8 -293 -17 -604 -96 -845 -216 -89 -44 -139
-78 -172 -117 l-22 -26 -56 55 c-66 64 -108 141 -126 228 -7 34 -17 62 -22 62
-17 0 -2 -152 21 -203 53 -118 259 -250 423 -269 170 -19 192 -23 196 -35 5
-14 -99 -64 -196 -92 -40 -12 -71 -25 -68 -27 8 -9 118 15 181 39 63 23 146
91 130 106 -5 5 -70 19 -144 30 -128 20 -273 61 -295 83 -14 14 53 70 123 103
109 52 304 126 399 150 126 33 197 32 343 -5 95 -24 253 -74 268 -85 2 -2 14
-52 27 -111 52 -229 172 -456 307 -578 29 -27 70 -64 91 -83 l38 -34 -20 38
c-10 21 -38 56 -61 78 -88 85 -216 287 -274 435 -49 123 -67 217 -73 372 -7
174 -11 170 103 108 84 -46 121 -50 152 -17 l22 24 -30 39 c-17 21 -53 66 -81
99 -27 33 -64 83 -80 112 l-30 52 12 108 c14 129 8 283 -22 529 -16 136 -20
212 -16 319 5 147 13 181 66 298 16 37 37 100 45 140 21 97 49 191 76 252 12
28 35 88 51 134 54 157 189 387 338 573 93 116 323 360 412 436 40 35 117 102
170 148 53 46 125 106 160 134 72 55 343 238 432 291 32 19 66 42 75 53 16 18
16 18 -18 4 -77 -33 -399 -234 -490 -306 -106 -85 -430 -365 -490 -423 -212
-207 -400 -443 -515 -644 -12 -22 -35 -61 -50 -87 -15 -27 -33 -48 -41 -48 -8
0 -14 2 -14 3 0 27 128 320 185 424 20 36 34 70 32 76 -6 18 -83 -87 -118
-160 -108 -228 -181 -426 -230 -623 -11 -47 -34 -139 -50 -205 -21 -85 -33
-162 -39 -265 -5 -80 -14 -163 -21 -185 -13 -43 -7 -234 10 -321 12 -63 27
-203 41 -381 8 -104 8 -153 0 -184 -7 -23 -15 -38 -20 -33 -5 5 -21 45 -35 89
-15 44 -31 87 -35 95 -5 9 -16 60 -25 115 -23 133 -16 425 13 565 20 94 20
119 1 90 -30 -47 -69 -285 -69 -420 0 -193 20 -298 98 -519 17 -50 40 -91 69
-123 24 -27 56 -74 72 -106 29 -57 62 -93 114 -126 38 -23 25 -39 -27 -31 -76
13 -163 70 -192 127 -13 26 -20 29 -44 24 -26 -5 -39 5 -137 102 -220 218
-331 390 -420 650 -47 140 -56 120 -13 -31 44 -153 113 -308 166 -370 24 -28
42 -52 40 -55 -3 -2 -55 22 -117 54 -123 64 -239 162 -285 240 -32 54 -54 159
-54 259 0 123 -18 78 -25 -65 -6 -115 -4 -137 24 -275 41 -201 57 -250 99
-298 22 -25 8 -32 -22 -10 -24 18 -121 171 -170 271 -15 29 -38 94 -51 146
-14 51 -39 130 -57 177 -25 69 -32 106 -39 209 -4 69 -13 152 -19 185 -16 81
-6 412 15 530 9 50 20 122 25 160 16 134 80 366 150 541 80 201 116 276 195
404 31 52 82 138 113 190 74 127 99 163 214 312 84 109 109 133 177 177 43 27
106 80 140 118 35 37 90 92 124 122 34 30 77 67 96 83 74 65 -12 34 -108 -39
-60 -45 -89 -52 -110 -25 -9 12 -30 24 -47 28 -37 7 -167 -17 -281 -53 -100
-31 -514 -235 -600 -295 -163 -115 -333 -257 -333 -278 0 -3 -50 -50 -110
-104 -138 -123 -227 -253 -314 -456 -32 -74 -66 -143 -76 -153 -17 -18 -18
-18 -30 15 -8 20 -15 99 -18 209 -3 150 -1 189 17 270 19 91 86 262 129 331
11 18 37 62 58 97 40 69 78 111 189 207 97 83 201 145 366 221 165 75 240 101
427 149 144 37 203 39 324 13 38 -9 74 -6 201 16 86 14 184 25 219 24 46 -2
89 5 158 26 132 39 365 136 459 190 43 25 83 45 88 45 6 0 26 -30 44 -66 41
-81 113 -172 155 -196 47 -27 137 -38 549 -67 72 -5 210 -9 307 -10 97 -1 223
-6 280 -11 57 -5 145 -9 197 -10 114 0 479 -34 611 -56 392 -66 419 -72 507
-112 181 -82 648 -278 818 -344 255 -98 281 -107 365 -131 109 -31 129 -37
405 -102 193 -46 356 -56 566 -34 148 14 226 33 319 73 47 21 97 36 120 36 46
0 72 9 64 21 -3 5 -14 9 -26 9 -15 0 -18 4 -13 18 4 9 9 32 12 50 11 65 29 41
143 -193 119 -244 142 -295 170 -380 12 -38 44 -129 71 -201 27 -75 61 -194
79 -280 16 -82 43 -192 60 -244 42 -137 68 -278 75 -410 5 -102 4 -112 -8 -90
-8 14 -31 104 -51 200 -33 152 -74 289 -167 548 -12 34 -24 60 -26 58 -3 -2
24 -94 60 -203 36 -109 79 -263 96 -343 17 -80 40 -181 50 -225 45 -187 55
-272 68 -565 11 -256 10 -373 -5 -530 -26 -279 -85 -508 -124 -484 -8 5 -8 -2
-2 -22 16 -57 6 -91 -81 -287 -48 -108 -85 -200 -82 -203 16 -17 149 220 197
353 23 63 34 70 50 29 6 -16 28 -30 72 -46 35 -12 81 -34 103 -49 105 -68 438
-323 505 -386 41 -39 109 -99 151 -133 90 -72 463 -452 522 -532 23 -30 64
-80 92 -110 28 -30 60 -68 72 -85 14 -19 22 -24 23 -15 0 30 -61 132 -118 197
-185 213 -229 260 -342 373 -69 69 -152 148 -185 175 -33 27 -105 90 -160 141
-133 121 -414 329 -551 409 -18 11 -34 22 -34 25 0 3 37 24 83 47 117 58 319
212 472 360 216 208 616 722 783 1006 l52 88 0 195 c0 193 0 195 -20 184 -23
-13 -67 9 -109 54 -29 31 -22 56 27 90 70 48 104 90 100 124 l-3 30 -65 -60
c-186 -173 -400 -285 -616 -323 -87 -15 -233 -12 -281 6 -20 8 -22 11 -11 34
11 24 9 28 -25 56 -49 41 -48 53 6 43 63 -11 217 -6 300 10 218 42 435 186
601 400 94 121 96 126 96 267 l0 122 -36 35 c-34 33 -36 38 -31 83 3 26 20 75
36 108 17 33 31 75 31 93 l0 32 -51 -53 c-27 -29 -55 -65 -60 -79 -17 -43 -40
-163 -33 -173 15 -25 -8 -46 -64 -58 -31 -7 -78 -18 -104 -26 -54 -15 -75 -6
-80 35 -3 22 -8 18 -63 -45 -101 -118 -218 -231 -264 -255 -102 -51 -131 34
-76 225 10 33 24 67 31 76 19 21 17 48 -5 84 -35 59 -44 101 -27 133 19 37 89
98 122 106 13 4 49 -1 79 -9 42 -13 61 -25 82 -53 106 -145 137 -182 154 -182
11 0 19 2 19 4 0 17 -74 111 -127 162 -35 33 -63 66 -63 72 0 6 -15 22 -33 36
-27 20 -45 26 -87 26 -47 0 -59 -5 -106 -40 -35 -28 -61 -59 -80 -96 -15 -30
-31 -57 -35 -59 -14 -10 -58 45 -69 86 -7 24 -18 67 -26 95 -8 28 -13 62 -10
75 3 13 7 45 10 71 2 26 13 67 25 91 12 24 21 49 21 57 0 20 104 170 157 225
26 28 55 59 63 70 15 18 14 18 -20 -1 -54 -29 -220 -200 -276 -282 -94 -141
-164 -268 -218 -397 -70 -168 -83 -211 -101 -330 -19 -123 -19 -222 0 -305 8
-36 24 -114 35 -175 12 -60 28 -124 37 -143 23 -48 105 -135 167 -176 29 -19
59 -42 66 -51 12 -15 10 -16 -16 -9 -51 11 -115 54 -195 131 -104 99 -150 184
-200 368 -43 155 -25 423 41 630 45 139 55 164 124 305 80 163 149 267 272
411 52 61 99 120 104 129 14 25 258 213 360 276 147 92 306 139 488 146 27 1
32 5 30 22 -2 15 -11 22 -34 24 -26 3 -35 10 -50 44 -10 22 -28 47 -41 55 -19
13 -23 24 -23 64 0 41 7 60 44 116 24 38 58 81 75 97 19 18 31 40 31 55 0 24
-2 23 -46 -19 -25 -25 -63 -72 -84 -104 l-39 -60 -16 40 c-202 493 -550 993
-1060 1519 -86 89 -395 382 -486 462 l-97 83 -327 -2 -328 -3 79 -65 c120 -99
421 -403 510 -515 l79 -100 150 -7 c188 -8 323 -29 400 -63 140 -61 156 -69
167 -82 20 -24 -1 -27 -75 -9 -39 9 -151 26 -248 37 -154 17 -191 18 -300 8
-197 -18 -181 -20 -204 28 -47 97 -331 409 -579 637 l-149 136 -1040 0 c-885
0 -1038 -2 -1034 -14 3 -8 11 -33 18 -56 13 -42 13 -42 52 -36 30 5 44 2 58
-10 39 -35 25 -46 -171 -141 -256 -125 -433 -171 -551 -143 -76 17 -99 34 -99
71 0 62 39 112 144 184 22 15 34 36 47 83 l17 62 -1369 0 -1369 0 -53 -47
c-30 -27 -101 -90 -160 -141 -223 -197 -383 -390 -469 -571 -28 -58 -73 -136
-100 -173 -52 -71 -68 -110 -68 -170 0 -56 -17 -46 -25 14 -4 29 -14 71 -22
93 -38 110 -45 181 -40 464 3 253 6 286 30 396 32 143 31 135 9 135 -15 0 -22
-18 -40 -92z m5250 -7 c145 -56 141 -143 -12 -271 -18 -16 -21 -23 -12 -27 8
-3 29 -18 47 -35 105 -92 96 -254 -16 -277 -74 -15 -187 16 -276 76 -152 103
-263 225 -305 335 -11 29 -26 61 -35 70 -28 31 -11 51 71 87 121 52 230 72
366 67 87 -3 129 -9 172 -25z m-821 -365 c15 -24 69 -79 120 -122 145 -121
269 -257 269 -294 0 -28 -81 -55 -160 -54 -112 1 -185 33 -287 124 -48 44 -94
80 -101 80 -7 0 -30 -11 -50 -25 -47 -32 -146 -63 -241 -75 -56 -8 -90 -6
-145 5 -80 17 -106 38 -106 89 0 41 18 66 88 119 100 77 175 107 417 168 155
39 164 38 196 -15z m-101 -335 c14 -27 13 -31 -8 -31 -21 0 -42 18 -42 37 0
20 38 15 50 -6z m4362 -1539 c16 -16 -5 -32 -44 -32 -24 0 -95 -26 -233 -85
-134 -57 -472 -346 -618 -528 -135 -168 -302 -478 -352 -652 -9 -33 -25 -87
-35 -120 -25 -80 -50 -235 -50 -304 0 -31 7 -101 16 -156 20 -131 18 -123 32
-137 7 -7 12 -22 12 -35 0 -13 11 -46 25 -73 26 -52 32 -75 15 -65 -6 4 -8 11
-5 16 4 5 0 9 -7 9 -17 0 -68 86 -101 170 -14 36 -31 106 -37 155 -6 50 -14
100 -17 112 -3 13 0 44 6 70 6 27 18 108 26 182 17 150 26 188 89 382 76 233
138 344 322 575 203 253 455 432 729 515 70 22 206 22 227 1z m-8612 -101 c22
-6 19 -9 -25 -20 -99 -24 -291 -84 -325 -101 -19 -10 -53 -23 -74 -28 -38 -11
-39 -11 -19 7 31 30 81 52 178 82 50 15 115 36 145 48 58 21 79 24 120 12z
m428 4 c-8 -8 -77 -9 -85 -2 -3 4 15 7 42 7 27 0 46 -2 43 -5z m8211 -1554
c36 -70 45 -126 31 -189 -17 -80 -29 -99 -111 -181 -77 -78 -117 -101 -174
-101 -43 0 -85 39 -85 80 0 51 30 128 73 184 23 31 62 84 87 118 79 108 100
128 131 128 23 0 32 -7 48 -39z m-1261 -1387 c4 -106 -1 -154 -17 -154 -9 0
-23 244 -14 266 14 37 28 -13 31 -112z"/>
<path d="M1381 10946 c-80 -205 -131 -470 -131 -693 0 -158 10 -223 48 -300
43 -90 58 -60 21 43 -18 48 -23 88 -27 210 -6 222 27 447 104 702 20 63 34
121 32 130 -2 10 -23 -32 -47 -92z"/>
<path d="M10950 8606 c-120 -31 -243 -99 -320 -176 -34 -34 -67 -80 -57 -80 2
0 66 32 143 72 133 69 142 72 209 72 60 0 79 -4 133 -32 l62 -32 0 43 c0 37
-4 45 -29 60 -16 9 -53 20 -82 25 -50 7 -52 9 -32 20 12 7 49 15 83 19 41 4
60 10 60 19 0 21 -71 17 -170 -10z"/>
<path d="M4888 8328 c-13 -24 -24 -52 -24 -63 -1 -11 -15 -49 -32 -85 -59
-129 -127 -386 -143 -540 -18 -185 7 -457 49 -537 7 -12 9 -28 6 -36 -10 -28
26 -148 87 -284 34 -76 71 -163 83 -193 34 -89 88 -181 113 -193 34 -15 39 -2
11 35 -47 64 -88 283 -88 471 0 191 46 464 91 546 l20 36 -6 -65 c-12 -115
-12 -162 -3 -339 10 -186 21 -258 63 -415 49 -184 177 -396 268 -442 27 -14
28 -14 23 3 -30 98 -46 157 -57 208 -11 58 -15 246 -5 314 3 23 2 31 -5 24
-15 -15 -31 -198 -24 -273 6 -58 32 -174 50 -222 13 -33 -12 -18 -40 23 -53
81 -117 215 -155 329 -55 163 -77 299 -85 533 -7 201 2 312 40 489 16 76 2 65
-26 -20 -12 -37 -39 -102 -61 -145 -34 -68 -57 -144 -98 -315 -20 -84 -32
-249 -27 -354 3 -60 2 -108 -2 -108 -9 0 -40 69 -61 133 -6 20 -15 35 -20 32
-11 -7 -20 20 -20 60 0 19 -5 46 -11 62 -35 92 -81 419 -78 558 1 89 19 202
54 342 37 149 65 225 127 345 38 74 46 117 21 125 -7 3 -22 -15 -35 -39z"/>
<path d="M3965 8114 c-60 -69 -136 -160 -168 -202 -92 -119 -249 -360 -244
-374 8 -23 69 54 160 200 48 77 144 212 214 299 122 153 159 203 152 203 -2 0
-53 -57 -114 -126z"/>
<path d="M11012 8080 c-40 -22 -79 -40 -86 -40 -7 0 -25 13 -40 29 -34 35 -80
45 -139 30 -35 -8 -54 -22 -86 -61 -49 -60 -64 -111 -59 -194 3 -51 11 -72 49
-135 25 -41 60 -100 78 -131 35 -63 132 -153 155 -145 8 3 34 36 58 74 25 37
59 83 76 102 18 18 32 38 32 45 0 6 16 35 35 63 25 38 35 63 34 90 l0 38 -23
-45 c-41 -83 -211 -310 -231 -310 -7 0 -28 24 -46 53 -18 28 -55 80 -81 115
-26 35 -48 69 -48 75 0 7 -7 26 -16 42 -9 18 -16 53 -15 88 1 64 18 101 70
151 46 45 82 39 145 -23 29 -28 55 -51 59 -51 4 0 7 18 7 40 0 36 3 41 40 60
21 11 62 25 90 31 39 8 50 15 50 30 0 29 -26 23 -108 -21z"/>
<path d="M7161 7831 c-10 -6 -17 -41 -22 -108 -8 -98 -27 -210 -55 -313 -14
-52 -34 -110 -38 -110 -1 0 -29 10 -61 22 -127 46 -268 19 -322 -63 -14 -22
-24 -41 -22 -42 2 -2 48 -9 102 -15 117 -14 222 -40 237 -57 10 -12 -78 -191
-153 -310 -57 -91 -213 -278 -330 -395 -279 -279 -301 -297 -399 -314 -31 -6
-38 -4 -38 9 0 31 23 61 135 175 124 127 232 258 289 350 38 61 46 106 10 57
-137 -192 -380 -449 -583 -617 -106 -88 -216 -170 -229 -170 -5 0 -26 21 -45
48 -95 129 -170 346 -191 548 -15 141 -11 230 20 464 10 84 -4 55 -21 -41 -41
-240 -45 -281 -34 -389 21 -215 84 -441 148 -534 42 -62 113 -146 123 -146 15
0 118 71 184 127 58 49 74 58 123 64 210 29 459 226 762 604 74 92 134 185
204 320 31 61 61 114 66 119 10 11 90 -22 179 -74 36 -21 109 -77 162 -124 54
-47 100 -86 103 -86 12 0 3 58 -14 95 -20 42 -197 255 -213 255 -16 0 -158
102 -158 113 0 7 12 50 25 96 14 46 32 136 41 200 9 63 20 124 26 135 5 10 7
31 4 47 -3 15 -1 31 4 34 16 10 153 -110 237 -208 186 -216 273 -355 452 -717
143 -289 220 -486 232 -590 4 -41 13 -100 19 -130 40 -200 60 -397 60 -594 0
-223 -10 -336 -41 -441 -39 -133 -90 -278 -119 -336 -17 -32 -30 -61 -30 -64
0 -41 136 151 199 280 83 172 189 543 216 755 8 69 20 155 25 192 13 85 13
130 0 164 -14 36 -19 28 -25 -37 -3 -30 -10 -90 -15 -134 -5 -44 -12 -107 -15
-140 -19 -176 -101 -482 -133 -493 -6 -2 -9 40 -8 115 2 177 -12 456 -29 564
-18 120 -59 288 -80 330 -9 17 -34 88 -55 158 -48 161 -89 259 -208 500 -114
232 -203 381 -312 526 -119 159 -204 249 -276 295 -64 40 -88 47 -113 31z
m-173 -541 c35 -16 42 -24 42 -47 0 -55 -11 -60 -92 -39 -40 11 -115 21 -165
24 -51 3 -93 8 -93 13 0 13 53 47 90 57 61 18 170 14 218 -8z m162 -95 c49
-30 95 -69 133 -113 109 -125 118 -145 32 -77 -22 18 -64 45 -94 60 -30 15
-77 42 -104 61 -27 19 -53 34 -58 34 -10 0 -12 41 -3 64 3 9 9 16 13 16 3 0
40 -21 81 -45z"/>
<path d="M4328 7671 c-76 -24 -238 -112 -311 -168 -64 -49 -119 -126 -136
-189 -6 -21 -18 -49 -27 -62 -29 -42 -6 -35 53 15 154 132 323 210 572 263
123 27 132 30 126 41 -15 23 -170 -7 -340 -64 -125 -42 -202 -81 -283 -142
-35 -26 -65 -45 -67 -43 -11 11 64 105 124 155 80 67 262 157 348 174 73 14
114 7 178 -27 54 -28 67 -26 33 6 -61 59 -165 74 -270 41z"/>
<path d="M8127 7514 c-3 -5 10 -70 28 -144 81 -331 106 -442 121 -540 20 -133
37 -165 29 -55 -8 113 -22 198 -61 370 -51 230 -103 392 -117 369z"/>
<path d="M3713 6633 c-4 -9 -1 -41 5 -72 11 -50 10 -57 -4 -66 -79 -47 -175
-117 -224 -161 -32 -30 -62 -54 -67 -54 -5 0 -33 16 -63 35 -30 19 -64 35 -76
35 -44 0 -43 -78 2 -159 13 -24 24 -51 24 -61 0 -46 -86 -199 -130 -230 -26
-19 -31 -19 -71 -5 -23 8 -44 13 -47 11 -9 -10 11 -67 38 -105 16 -21 45 -71
65 -111 52 -102 123 -210 139 -210 32 0 39 28 32 123 -10 145 19 220 161 408
87 116 170 194 240 226 62 28 278 89 349 98 71 9 206 -18 278 -56 168 -88 278
-208 337 -368 23 -63 38 -73 50 -30 13 45 9 106 -11 163 -73 215 -296 438
-505 507 -46 15 -70 16 -176 8 -68 -4 -149 -11 -179 -15 l-55 -6 -14 37 c-23
65 -82 100 -98 58z"/>
<path d="M4284 6642 c3 -6 36 -22 73 -37 86 -34 151 -78 259 -173 113 -101
124 -109 124 -90 0 23 -129 151 -209 206 -40 28 -96 60 -125 70 -64 24 -130
37 -122 24z"/>
<path d="M6895 6255 c-164 -26 -307 -77 -351 -126 -24 -27 -3 -24 64 9 94 48
312 92 450 92 74 0 93 12 46 30 -33 13 -108 11 -209 -5z"/>
<path d="M4180 6231 c-50 -16 -150 -72 -185 -103 -75 -65 -177 -236 -209 -349
-63 -223 -63 -472 -1 -604 9 -17 55 -63 103 -102 145 -117 116 -110 294 -68
228 55 332 90 368 126 40 41 97 162 115 246 32 149 10 435 -45 583 -39 105
-57 135 -118 192 -74 69 -103 81 -207 85 -49 1 -101 -1 -115 -6z m-30 -278
c26 -34 22 -77 -11 -122 -46 -63 -112 -63 -144 0 -20 37 -9 72 33 112 49 45
91 49 122 10z m290 -638 c45 -24 61 -51 67 -113 5 -58 5 -61 -23 -74 -16 -8
-106 -28 -200 -43 l-171 -28 -34 19 c-86 50 -63 124 63 200 96 59 227 76 298
39z"/>
<path d="M7405 6120 c-33 -16 -71 -38 -85 -49 l-25 -20 -90 30 c-122 41 -208
46 -305 20 -171 -48 -167 -48 -198 -18 -26 25 -62 37 -62 20 1 -5 7 -19 15
-33 22 -38 19 -46 -32 -76 -73 -43 -143 -117 -143 -152 0 -17 -9 -49 -19 -73
-11 -24 -18 -45 -16 -48 3 -2 35 24 72 59 120 112 253 151 453 132 242 -24
334 -67 498 -231 63 -64 130 -139 149 -167 42 -63 75 -158 102 -291 26 -127
26 -199 1 -298 -11 -43 -20 -82 -20 -87 0 -23 31 1 119 91 53 54 142 133 199
175 57 43 106 84 109 93 10 27 -23 44 -103 54 -43 6 -83 14 -90 20 -6 5 -15
33 -18 61 -4 28 -25 99 -46 157 -45 119 -48 100 32 162 40 31 74 90 65 113 -9
23 -69 20 -147 -8 l-65 -23 -75 71 c-42 39 -116 95 -165 125 -50 30 -92 55
-94 57 -2 2 19 28 47 58 53 56 65 89 36 100 -26 10 -36 7 -99 -24z"/>
<path d="M6920 5820 c-91 -33 -174 -97 -249 -190 -87 -108 -111 -157 -158
-316 -33 -113 -38 -141 -37 -229 0 -116 30 -244 64 -280 28 -30 129 -82 250
-130 133 -52 145 -56 235 -66 44 -5 96 -12 116 -15 34 -5 39 -3 70 37 42 52
80 89 139 132 59 43 88 104 141 291 l42 151 -18 115 c-10 63 -21 144 -24 180
-7 72 -34 127 -101 202 -101 115 -323 170 -470 118z m69 -180 c10 -5 24 -23
31 -40 17 -42 -1 -81 -49 -108 -52 -29 -86 -28 -116 4 -37 40 -33 75 15 118
41 37 82 46 119 26z m-10 -682 c65 -32 141 -110 141 -145 -1 -59 -73 -163
-113 -163 -7 0 -95 42 -197 93 -166 82 -185 95 -188 119 -5 39 23 85 66 108
33 18 49 20 141 15 80 -4 116 -10 150 -27z"/>
<path d="M5122 5028 c-16 -16 -15 -28 3 -28 8 0 15 9 15 20 0 23 -2 24 -18 8z"/>
<path d="M1877 4994 c-93 -48 -294 -267 -285 -311 3 -15 6 -14 27 7 13 14 49
59 81 101 60 78 150 166 201 196 16 9 29 21 29 25 0 10 3 11 -53 -18z"/>
<path d="M9285 4597 c-87 -144 -219 -308 -357 -443 -170 -168 -252 -224 -330
-224 -32 0 -27 -17 8 -28 30 -9 41 -7 93 19 171 85 458 407 602 674 23 42 40
78 37 80 -2 2 -26 -33 -53 -78z"/>
<path d="M7935 4595 c-80 -128 -125 -184 -244 -304 -135 -135 -137 -137 -271
-204 -162 -81 -235 -104 -401 -125 -126 -17 -153 -29 -101 -46 15 -5 52 -32
83 -60 72 -65 196 -131 274 -146 79 -15 212 0 320 36 100 33 153 34 230 3 54
-22 74 -24 202 -23 131 1 142 0 133 -16 -36 -67 -516 -405 -725 -510 -162 -82
-281 -115 -201 -56 144 105 260 219 326 318 64 96 93 169 88 220 -3 32 -4 31
-22 -22 -31 -91 -83 -175 -170 -273 -105 -117 -198 -189 -356 -272 -206 -108
-204 -108 -447 -103 -205 4 -209 5 -288 36 -44 18 -111 50 -149 72 -78 46
-107 44 -44 -4 149 -111 271 -145 521 -146 153 -1 236 10 343 45 316 106 588
230 726 333 173 128 269 204 363 286 78 69 109 89 154 102 132 39 149 46 176
74 35 37 26 49 -20 27 -98 -47 -314 -79 -445 -67 -142 13 -200 37 -200 82 0
25 -11 23 -76 -12 -30 -16 -94 -41 -142 -57 -111 -35 -256 -39 -342 -9 -62 21
-179 87 -205 116 -20 22 -32 18 145 51 63 12 135 32 160 44 217 109 277 152
400 282 106 112 165 191 202 271 31 69 33 105 3 57z"/>
<path d="M5180 4501 c-187 -33 -346 -81 -432 -129 -20 -11 -69 -30 -110 -42
-40 -12 -81 -29 -90 -37 -32 -29 -59 -124 -74 -263 -18 -174 -18 -253 2 -348
34 -164 76 -261 168 -382 72 -95 129 -143 235 -196 105 -53 123 -39 28 21
-123 78 -162 111 -225 193 -112 146 -141 216 -168 407 -18 127 -13 235 17 329
26 84 44 108 126 165 76 53 118 103 109 126 -3 8 -2 14 2 13 4 0 23 6 44 15
47 21 228 65 320 77 40 5 102 14 138 20 85 13 329 13 366 0 25 -9 33 -21 54
-87 14 -42 33 -81 42 -87 20 -12 64 9 114 56 44 41 65 32 167 -70 110 -112
158 -176 213 -287 59 -120 77 -197 78 -325 1 -90 -3 -116 -25 -177 -50 -136
-199 -322 -337 -420 -35 -25 -61 -48 -58 -50 9 -9 80 19 116 45 62 45 187 181
238 260 105 160 133 334 84 519 -54 203 -198 418 -346 517 -53 35 -123 36
-174 1 -20 -14 -44 -25 -53 -25 -17 0 -40 47 -54 108 -11 54 -50 65 -245 68
-126 3 -190 -1 -270 -15z m-445 -171 c-18 -20 -55 -28 -55 -11 0 5 12 14 28
19 41 16 47 14 27 -8z"/>
<path d="M9261 4348 c-7 -24 -19 -53 -27 -65 -8 -12 -39 -66 -70 -120 -93
-162 -214 -299 -378 -430 -23 -18 -44 -33 -48 -33 -5 0 -8 37 -8 83 -1 87 -13
89 -24 3 -3 -27 -24 -103 -46 -169 -25 -74 -44 -154 -50 -206 -10 -99 -19
-125 -102 -316 -123 -279 -323 -589 -459 -706 -113 -99 -305 -220 -385 -244
-282 -83 -509 -122 -809 -140 l-110 -7 -39 31 c-21 17 -44 31 -51 31 -22 0
-25 -13 -8 -32 9 -10 13 -21 9 -25 -14 -14 -266 0 -581 33 -176 18 -228 31
-233 55 -2 13 10 19 60 28 35 6 77 15 93 19 29 8 28 9 -24 22 -78 18 -167 19
-185 0 -13 -13 -12 -20 6 -62 17 -39 27 -50 62 -63 70 -26 165 -43 301 -54 72
-6 175 -15 230 -20 55 -5 142 -10 194 -10 116 -1 124 -3 146 -44 l18 -33 -62
-109 c-89 -157 -161 -252 -272 -360 -206 -200 -414 -295 -692 -317 -149 -12
-447 1 -602 27 -44 7 -115 19 -157 25 -81 13 -86 18 -69 64 6 13 22 84 37 157
23 119 26 149 21 279 -5 158 -24 255 -77 400 -16 46 -30 89 -30 95 0 28 408
163 635 209 177 36 216 47 209 57 -22 36 -479 -66 -684 -151 -130 -54 -180
-73 -184 -69 -2 2 -27 38 -56 79 -29 41 -68 92 -86 113 -38 42 -38 39 -25 222
9 121 -2 232 -24 254 -16 15 -182 77 -269 101 -228 61 -700 330 -905 515 -43
38 -44 39 -23 8 77 -109 320 -285 582 -421 170 -88 249 -121 445 -182 134 -43
169 -65 163 -104 -2 -17 -9 -21 -33 -19 -173 13 -485 -5 -651 -36 -201 -38
-375 -102 -337 -124 5 -2 67 13 138 34 124 36 196 48 194 32 0 -5 -39 -37 -86
-73 -159 -120 -183 -140 -183 -151 0 -13 70 -44 141 -62 71 -19 147 -7 259 40
186 78 290 113 315 107 42 -10 31 28 -27 97 -85 99 -84 97 -55 104 34 9 314 2
323 -8 10 -10 -9 -63 -21 -60 -18 4 -25 -51 -19 -137 7 -84 7 -86 53 -135 66
-70 104 -129 155 -238 84 -178 111 -291 121 -502 10 -215 -28 -452 -75 -475
-8 -5 -62 -13 -120 -20 -100 -11 -189 -37 -163 -47 7 -3 36 0 63 6 28 6 85 11
126 11 l75 0 -16 -30 c-19 -36 -19 -40 -1 -40 8 0 24 16 35 36 l22 36 67 -7
c160 -16 392 -95 451 -154 l20 -20 -25 -50 c-15 -27 -23 -54 -19 -60 10 -16
36 -13 50 6 11 15 14 13 30 -18 10 -19 33 -51 51 -73 19 -23 45 -73 61 -120
26 -74 28 -93 28 -226 0 -159 -15 -227 -76 -337 l-29 -53 1030 0 1030 0 16 27
c98 160 310 408 430 503 218 174 424 291 561 319 265 53 268 53 360 47 63 -4
105 -12 132 -25 57 -29 58 -46 5 -72 -25 -11 -43 -23 -40 -26 2 -3 57 -7 121
-9 165 -7 313 -46 473 -127 166 -84 217 -130 278 -253 52 -105 66 -180 44
-234 -20 -49 -30 -45 -175 70 -259 207 -719 225 -1120 45 -115 -52 -298 -167
-379 -239 l-29 -26 896 0 c494 0 897 3 897 6 0 3 -14 26 -32 50 -31 43 -31 45
-20 95 22 95 13 150 -43 263 -14 28 -25 60 -25 72 0 13 -7 56 -16 96 -8 40
-21 123 -29 183 -21 167 -57 316 -108 450 -9 22 -37 99 -63 170 -40 111 -74
187 -179 395 -36 71 -129 227 -173 289 -141 200 -407 457 -595 574 -117 72
-262 147 -286 147 -15 0 -14 37 0 46 15 9 68 123 144 309 l61 150 94 14 c83
12 97 12 120 -1 14 -9 67 -41 119 -72 196 -119 407 -198 746 -279 317 -76 594
-130 905 -177 74 -11 160 -25 190 -30 56 -11 283 -40 309 -40 8 0 12 3 8 6 -3
4 -48 13 -99 20 -51 7 -151 25 -223 38 -71 14 -173 32 -225 41 -52 9 -149 27
-215 40 -66 13 -167 33 -225 44 -203 40 -624 136 -687 157 -73 24 -287 122
-385 175 -82 44 -277 184 -340 244 -16 14 -28 36 -28 49 0 40 21 86 39 86 9 0
79 -25 156 -56 77 -30 212 -82 300 -114 88 -32 221 -81 295 -108 129 -48 546
-187 695 -232 187 -57 581 -150 695 -165 30 -4 71 -18 92 -31 46 -29 58 -30
58 -5 0 21 -10 26 -80 36 -25 4 -52 9 -60 11 -360 86 -534 133 -780 211 -113
36 -245 78 -295 93 -143 43 -290 97 -798 294 -132 51 -197 83 -197 94 0 5 17
16 38 25 172 76 524 377 441 377 -6 0 -50 -37 -97 -81 -94 -88 -249 -202 -263
-193 -14 8 1 28 77 107 80 82 129 151 203 289 49 92 81 173 81 211 0 32 -17
17 -29 -25z m-522 -914 c52 -42 81 -72 81 -85 0 -5 -26 -9 -57 -9 -32 -1 -75
-7 -95 -14 -21 -8 -38 -11 -38 -7 0 23 45 151 53 151 5 0 31 -16 56 -36z
m-318 -693 c27 -44 103 -111 126 -111 10 0 5 11 -17 33 -60 61 -55 70 17 30
155 -84 279 -182 453 -354 214 -212 299 -336 532 -776 32 -59 58 -116 58 -125
0 -10 29 -98 65 -195 83 -229 175 -616 163 -694 -3 -21 -8 -19 -74 38 -90 78
-163 119 -244 137 -36 7 -108 26 -160 40 -52 14 -110 26 -129 26 -29 0 -45 12
-125 93 -68 70 -109 103 -164 131 -112 58 -273 111 -437 145 -188 39 -215 51
-253 110 -107 164 -345 330 -610 425 -168 60 -216 68 -432 70 l-195 2 -50 36
c-27 20 -82 52 -121 71 -77 39 -103 62 -87 78 5 5 77 12 159 14 82 3 190 12
239 20 50 9 149 22 220 30 174 18 210 27 334 87 170 82 336 201 441 314 63 68
185 236 227 312 15 29 31 52 34 52 4 0 18 -18 30 -39z m-4177 -58 c71 -87 108
-135 105 -136 -2 -1 -44 -15 -94 -31 -49 -16 -133 -48 -185 -72 -143 -64 -184
-69 -295 -36 -69 21 -79 39 -35 65 17 10 75 52 130 92 126 94 168 115 249 125
102 12 110 11 125 -7z"/>
<path d="M8447 4165 c-62 -47 -238 -138 -349 -180 -87 -33 -129 -58 -116 -70
8 -9 211 51 260 76 118 60 268 172 268 200 0 16 -17 9 -63 -26z"/>
<path d="M2040 3839 c0 -12 63 -61 99 -76 19 -8 76 -17 126 -20 78 -5 99 -3
153 17 34 13 65 20 69 17 3 -4 -12 -46 -33 -94 -70 -157 -185 -277 -354 -368
-79 -42 -117 -71 -107 -81 4 -4 29 7 55 26 26 18 72 47 102 63 182 99 281 211
341 386 11 30 19 65 19 79 0 23 -3 24 -47 20 -27 -3 -81 -11 -120 -18 -88 -17
-178 -5 -254 33 -27 13 -49 21 -49 16z"/>
<path d="M3095 3574 c-88 -21 -254 -74 -300 -94 -22 -10 -74 -33 -115 -50 -91
-38 -297 -150 -365 -199 -27 -20 -82 -58 -122 -85 -39 -26 -112 -92 -162 -146
l-90 -98 -143 -4 c-161 -4 -202 -17 -220 -69 -13 -37 -24 -30 -32 20 -7 46
-33 75 -91 102 -59 27 -109 24 -158 -9 -55 -38 -169 -82 -226 -89 -25 -3 -127
5 -226 17 -160 20 -215 22 -500 18 -176 -2 -326 -7 -333 -12 -9 -6 -12 -206
-12 -911 l0 -904 38 6 c20 3 98 18 172 33 74 16 171 33 215 39 44 7 139 21
210 33 109 17 156 20 295 15 143 -5 384 -36 412 -53 4 -3 1 -19 -7 -37 -26
-60 -95 -292 -161 -537 -36 -135 -80 -301 -99 -370 -18 -69 -36 -140 -40 -157
l-7 -33 987 0 986 0 -6 48 c-3 26 -15 103 -25 172 -49 327 -48 476 5 566 36
61 86 91 198 119 165 41 227 77 262 156 15 33 16 43 5 63 -17 32 -45 38 -128
26 -126 -18 -187 21 -200 126 -12 94 -5 194 14 215 36 40 113 80 175 91 105
18 110 17 141 -27 108 -151 158 -212 245 -301 108 -111 331 -284 366 -284 19
0 17 3 -13 21 -95 57 -328 282 -445 429 -203 255 -316 520 -301 707 12 148 76
263 195 348 28 20 51 40 51 44 0 5 -23 2 -52 -5 -81 -21 -125 -18 -161 12
-109 92 -540 241 -907 314 -58 12 -171 25 -251 29 -80 5 -154 13 -164 18 -15
9 -9 19 56 88 194 203 570 422 953 552 196 67 220 80 81 47z"/>
<path d="M1021 3112 c-74 -37 -155 -113 -175 -163 -9 -23 -14 -44 -11 -47 3
-3 30 22 60 55 30 34 91 84 135 112 44 29 80 56 80 61 0 17 -33 11 -89 -18z"/>
<path d="M6130 3075 c0 -89 89 -206 240 -316 l61 -44 -53 -3 c-29 -2 -80 2
-113 8 -85 17 -382 132 -494 192 -110 59 -107 59 -141 -50 -36 -115 -20 -258
38 -352 87 -140 204 -264 289 -305 32 -16 75 -39 96 -52 67 -42 109 -64 114
-60 6 6 -54 55 -153 124 -232 161 -341 309 -363 488 -10 93 4 215 26 215 2 0
35 -17 71 -39 92 -53 144 -75 308 -132 154 -53 225 -67 354 -69 47 0 95 -4
108 -7 33 -8 27 15 -9 35 -18 9 -67 43 -109 74 -158 117 -218 184 -251 281
l-18 52 -1 -40z"/>
<path d="M4395 2426 c-37 -16 -59 -41 -52 -60 7 -17 115 -32 129 -18 14 14 -3
62 -28 78 -15 10 -25 10 -49 0z"/>
<path d="M3469 2289 c-40 -43 -38 -76 6 -95 47 -19 89 -18 108 4 31 34 16 81
-33 107 -40 21 -48 19 -81 -16z"/>
<path d="M4086 2260 c12 -4 65 -18 119 -29 114 -25 192 -56 206 -82 17 -33
-16 -85 -121 -193 -55 -56 -100 -106 -100 -109 0 -19 36 -2 77 36 58 53 161
187 175 228 16 45 -13 78 -93 107 -73 27 -325 67 -263 42z"/>
<path d="M3782 2167 c-143 -193 -160 -227 -122 -248 31 -17 237 -107 293 -128
47 -17 57 -18 57 -6 0 17 -94 66 -233 120 -94 37 -98 40 -92 64 4 14 28 55 54
91 65 90 125 189 119 196 -4 3 -38 -37 -76 -89z"/>
<path d="M5292 2150 c-26 -24 -28 -40 -7 -40 8 0 15 4 15 10 0 16 46 23 70 10
29 -16 37 -5 15 20 -23 26 -65 26 -93 0z"/>
<path d="M5642 2109 c-13 -5 -31 -28 -43 -56 -40 -91 -89 -234 -89 -258 0 -32
35 -52 290 -166 l202 -91 33 32 c21 20 51 71 76 129 23 53 52 116 64 141 31
62 39 90 25 90 -6 0 -51 -84 -101 -186 -86 -176 -92 -185 -115 -180 -31 8
-403 183 -428 201 -19 14 -19 16 2 79 12 35 44 108 73 161 52 97 54 121 11
104z"/>
<path d="M4966 1919 c-43 -34 -16 -43 37 -14 45 25 47 26 79 9 112 -57 308
-208 308 -237 0 -40 -197 -246 -270 -281 -55 -26 -75 -45 -64 -56 25 -25 156
59 230 147 108 127 141 184 126 218 -29 64 -312 235 -388 235 -17 0 -43 -10
-58 -21z"/>
<path d="M4599 1879 c-33 -35 -33 -52 -1 -57 16 -3 20 1 16 12 -6 17 29 56 50
56 39 0 64 -73 29 -84 -15 -4 -15 -5 1 -3 29 3 42 52 22 82 -25 38 -79 35
-117 -6z"/>
<path d="M6392 1790 c-61 -37 -64 -89 -7 -126 30 -20 62 -13 98 20 34 31 35
69 2 101 -29 30 -50 31 -93 5z m54 -71 c9 -16 -12 -33 -31 -25 -14 5 -15 9 -5
21 15 18 26 19 36 4z"/>
<path d="M4068 1673 c-24 -29 -85 -135 -119 -206 -50 -107 -37 -127 130 -212
55 -27 93 -38 154 -45 113 -13 115 -13 96 5 -8 8 -55 24 -104 34 -60 13 -117
34 -170 63 -106 57 -107 64 -23 234 34 71 64 132 66 137 7 14 -15 7 -30 -10z"/>
<path d="M4200 1676 c9 -9 69 -23 160 -36 188 -28 250 -54 250 -104 0 -27 -71
-148 -144 -246 -30 -41 -56 -78 -56 -82 0 -10 21 -10 36 0 17 10 138 193 163
245 39 80 38 100 -5 147 -49 52 -128 74 -299 84 -107 7 -118 6 -105 -8z"/>
<path d="M3724 1653 c-40 -43 -42 -72 -8 -100 16 -12 38 -23 49 -23 15 1 12 4
-12 15 -44 19 -60 51 -37 76 23 25 49 24 68 -3 23 -32 32 -13 13 27 -20 42
-40 44 -73 8z"/>
<path d="M5625 1453 c-26 -6 -45 -31 -38 -49 7 -19 33 -18 33 1 0 20 44 19 65
-1 14 -15 14 -18 0 -33 -19 -22 -19 -31 -2 -31 20 0 47 33 47 58 0 23 -44 63
-69 61 -9 -1 -25 -3 -36 -6z"/>
<path d="M4220 1049 c-95 -48 -179 -126 -245 -229 -64 -99 -82 -138 -111 -251
-29 -109 -35 -217 -20 -347 l7 -63 -44 -19 c-25 -11 -93 -31 -152 -45 -59 -14
-144 -40 -189 -58 l-81 -32 374 -3 c206 -1 377 0 379 3 3 3 -4 15 -16 27 -19
19 -25 20 -59 10 -78 -23 -82 -23 -101 -4 -34 34 -74 157 -82 250 -13 164 18
310 98 467 48 94 201 249 290 294 34 17 62 33 62 36 0 13 -35 1 -110 -36z"/>
<path d="M10103 853 c3 -10 17 -51 31 -90 14 -40 26 -81 26 -92 0 -11 9 -43
19 -73 29 -80 111 -458 123 -568 2 -19 10 -26 31 -28 36 -4 36 -4 -18 245 -63
286 -119 473 -175 584 -20 39 -47 55 -37 22z"/>
<path d="M8687 774 c-1 -1 -27 -4 -57 -7 -53 -6 -136 -42 -170 -76 -26 -25
-221 -151 -235 -151 -7 0 -23 -8 -36 -19 -13 -10 -35 -22 -48 -26 -30 -9 -51
-29 -132 -125 -35 -41 -74 -86 -87 -100 -13 -14 -30 -38 -38 -55 -8 -16 -32
-50 -54 -75 -22 -24 -40 -49 -40 -55 0 -6 -14 -27 -31 -48 l-30 -37 28 0 c26
0 38 13 101 103 87 124 276 331 364 397 100 75 244 157 343 195 109 41 155 54
260 70 l80 12 -108 -1 c-60 -1 -109 -2 -110 -2z"/>
<path d="M3415 725 c-23 -8 -55 -32 -75 -54 -40 -46 -45 -48 -67 -25 -30 30
-107 -3 -144 -62 -28 -46 -19 -84 33 -127 l40 -33 -26 -39 c-33 -48 -41 -81
-30 -114 14 -38 49 -52 121 -48 66 3 97 21 114 66 8 20 14 22 37 16 60 -16
100 -10 133 20 26 26 30 35 26 68 -6 47 -29 82 -68 106 l-29 18 20 26 c26 32
50 90 50 117 0 27 -52 80 -77 80 -10 -1 -36 -7 -58 -15z m79 -31 c46 -18 -11
-146 -78 -178 -48 -23 -37 -38 23 -30 44 6 49 4 73 -25 57 -67 42 -131 -32
-131 -27 0 -48 9 -76 31 l-39 31 -5 -56 c-6 -66 -15 -76 -68 -83 -125 -17
-147 69 -37 149 53 39 57 55 13 50 -25 -3 -44 4 -75 27 -68 49 -71 65 -25 112
30 29 48 39 72 39 29 0 33 -5 57 -60 34 -79 53 -79 53 -1 0 74 25 110 86 121
21 4 40 8 41 9 1 0 8 -2 17 -5z"/>
<path d="M10615 598 c27 -90 27 -384 0 -530 -12 -68 -12 -68 11 -68 18 0 26 8
34 38 18 59 22 267 6 355 -9 55 -10 77 -2 74 17 -5 107 -195 162 -339 27 -70
52 -128 57 -128 11 0 0 41 -40 150 -41 111 -139 328 -158 350 -7 8 -25 39 -39
68 -27 54 -44 69 -31 30z"/>
<path d="M10114 506 c-16 -18 -22 -49 -39 -229 -8 -87 -22 -185 -29 -218 -14
-60 -14 -60 7 -57 20 3 23 13 39 138 13 110 37 371 34 376 -1 1 -6 -4 -12 -10z"/>
</g>
</svg>
